<svg xmlns="http://www.w3.org/2000/svg" width="48" height="48" fill="none"><rect width="48" height="48" fill="#911016" rx="12"/><path fill="#fff" d="M20.755 30.5V19.67h-.19L13.44 30.5H9.83V17.2h2.755v10.83h.19L19.9 17.2h3.61v13.3h-2.755Zm10.742-12.255a8.06 8.06 0 0 0-2.565.399c-.786.253-1.54.69-2.261 1.311l-.855-1.14c.722-.62 1.583-1.108 2.584-1.463 1-.355 2.096-.532 3.287-.532.975 0 1.83.089 2.565.266.734.177 1.349.424 1.843.741s.861.69 1.102 1.121c.253.43.38.893.38 1.387 0 .81-.197 1.482-.59 2.014-.392.52-1.019.925-1.88 1.216.95.24 1.69.646 2.223 1.216.544.557.817 1.292.817 2.204 0 .545-.133 1.058-.4 1.539-.253.469-.658.88-1.215 1.235-.545.342-1.248.614-2.11.817-.86.203-1.9.304-3.115.304-1.242 0-2.388-.196-3.44-.589-1.038-.393-1.918-.925-2.64-1.596l.95-1.14c.722.671 1.488 1.159 2.299 1.463.81.291 1.69.437 2.64.437.735 0 1.362-.063 1.882-.19.519-.14.937-.33 1.254-.57.329-.24.57-.52.722-.836.152-.33.228-.684.228-1.064 0-.76-.241-1.343-.722-1.748-.482-.418-1.223-.627-2.223-.627h-3.99v-1.425h3.61c1.836 0 2.755-.823 2.755-2.47 0-.671-.273-1.216-.817-1.634-.545-.43-1.318-.646-2.318-.646Z"/></svg>