<svg xmlns="http://www.w3.org/2000/svg" width="332" height="48" fill="none"><rect width="48" height="48" fill="#911016" rx="12"/><path fill="#fff" d="M20.755 30.5V19.67h-.19L13.44 30.5H9.83V17.2h2.755v10.83h.19L19.9 17.2h3.61v13.3h-2.755Zm10.742-12.255a8.06 8.06 0 0 0-2.565.399c-.786.253-1.54.69-2.261 1.311l-.855-1.14c.722-.62 1.583-1.108 2.584-1.463 1-.355 2.096-.532 3.287-.532.975 0 1.83.089 2.565.266.734.177 1.349.424 1.843.741s.861.69 1.102 1.121c.253.43.38.893.38 1.387 0 .81-.197 1.482-.59 2.014-.392.52-1.019.925-1.88 1.216.95.24 1.69.646 2.223 1.216.544.557.817 1.292.817 2.204 0 .545-.133 1.058-.4 1.539-.253.469-.658.88-1.215 1.235-.545.342-1.248.614-2.11.817-.86.203-1.9.304-3.115.304-1.242 0-2.388-.196-3.44-.589-1.038-.393-1.918-.925-2.64-1.596l.95-1.14c.722.671 1.488 1.159 2.299 1.463.81.291 1.69.437 2.64.437.735 0 1.362-.063 1.882-.19.519-.14.937-.33 1.254-.57.329-.24.57-.52.722-.836.152-.33.228-.684.228-1.064 0-.76-.241-1.343-.722-1.748-.482-.418-1.223-.627-2.223-.627h-3.99v-1.425h3.61c1.836 0 2.755-.823 2.755-2.47 0-.671-.273-1.216-.817-1.634-.545-.43-1.318-.646-2.318-.646Z"/><path fill="#911016" d="M80.125 32.5V18.25h-.25L70.5 32.5h-4.75V15h3.625v14.25h.25L79 15h4.75v17.5h-3.625Zm20.884-13v13h-3.5v-5.75h-6.75v5.75h-3.5v-13h3.5V25h6.75v-5.5h3.5Zm10.511-.5c.533 0 1.066.05 1.6.15a8.885 8.885 0 0 1 1.525.375c.5.15.958.342 1.375.575.433.233.808.492 1.125.775l-1 1.5a8.958 8.958 0 0 0-2.1-1.2 6.01 6.01 0 0 0-2.275-.425c-.6 0-1.15.1-1.65.3-.5.183-.934.492-1.3.925-.367.417-.659.958-.875 1.625-.2.667-.3 1.467-.3 2.4 0 .933.1 1.733.3 2.4.216.667.516 1.217.9 1.65.383.417.841.725 1.375.925.55.183 1.15.275 1.8.275a6.01 6.01 0 0 0 2.275-.425 8.958 8.958 0 0 0 2.1-1.2l1 1.5a5.827 5.827 0 0 1-1.125.775 7.974 7.974 0 0 1-1.375.6c-.484.15-.992.267-1.525.35-.534.1-1.067.15-1.6.15-1.184 0-2.267-.158-3.25-.475-.967-.3-1.792-.742-2.475-1.325a6.236 6.236 0 0 1-1.6-2.2c-.367-.867-.55-1.867-.55-3 0-1.117.183-2.108.55-2.975.383-.883.908-1.617 1.575-2.2.666-.6 1.466-1.05 2.4-1.35.933-.317 1.966-.475 3.1-.475Zm20.514 2.25h-5.25V32.5h-3.5V21.25h-5.25V19.5h14v1.75Zm16.002-1.75v13h-3.5v-9.75h-.25l-5.75 9.75h-4.5v-13h3.5v9.75h.25l5.75-9.75h4.5Zm16.005 1.75h-5.25V32.5h-3.5V21.25h-5.25V19.5h14v1.75ZM173.668 37h-3.5l1.75-4.5h-2.125l-5.25-13h3.5l4.375 10.875h.25l4.125-10.875h3.5L173.668 37Zm21.135-15.75h-5.25V32.5h-3.5V21.25h-5.25V19.5h14v1.75Zm22.367 1.375c0 1.633-1.042 2.633-3.125 3 1.2.183 2.1.575 2.7 1.175.617.583.925 1.317.925 2.2 0 .567-.133 1.092-.4 1.575-.25.483-.658.908-1.225 1.275-.567.35-1.292.625-2.175.825-.883.217-1.95.325-3.2.325-1.383 0-2.642-.183-3.775-.55-1.117-.383-2.025-.825-2.725-1.325l1-1.5c.7.433 1.467.817 2.3 1.15.833.317 1.817.475 2.95.475 1.317 0 2.225-.208 2.725-.625.517-.433.775-1.058.775-1.875 0-.567-.208-1.042-.625-1.425-.417-.383-1-.575-1.75-.575h-4.375V25h3.875c.75 0 1.333-.192 1.75-.575.417-.4.625-.917.625-1.55s-.225-1.142-.675-1.525c-.433-.4-1.125-.6-2.075-.6-1.067 0-2.017.167-2.85.5-.817.317-1.575.692-2.275 1.125l-1-1.5c.7-.5 1.608-.933 2.725-1.3 1.117-.383 2.333-.575 3.65-.575 1.067 0 1.992.1 2.775.3.783.2 1.433.475 1.95.825.517.333.9.717 1.15 1.15.25.433.375.883.375 1.35Zm6.24 5.75c0 1.583.958 2.375 2.875 2.375h3.5V26h-3.5c-1.917 0-2.875.792-2.875 2.375Zm6.375-4.125c0-1.2-.317-2.083-.95-2.65-.617-.567-1.425-.85-2.425-.85-.75 0-1.483.117-2.2.35a7.055 7.055 0 0 0-1.925.9l-.875-1.5c.367-.25.767-.467 1.2-.65.45-.183.908-.333 1.375-.45.467-.133.925-.233 1.375-.3.467-.067.9-.1 1.3-.1 1.067 0 2.008.125 2.825.375.817.25 1.508.608 2.075 1.075a4.446 4.446 0 0 1 1.275 1.675c.3.633.45 1.342.45 2.125v8.25h-7c-2.267 0-3.942-.342-5.025-1.025-1.067-.683-1.6-1.717-1.6-3.1s.533-2.417 1.6-3.1c1.083-.683 2.758-1.025 5.025-1.025h3.5Zm20.613-4.75v13h-3.5V21.25h-6.75V32.5h-3.5v-13h13.75ZM261.534 37h-3.5l1.75-4.5h-2.125l-5.25-13h3.5l4.375 10.875h.25l4.125-10.875h3.5L261.534 37Zm15.147-18c.533 0 1.066.05 1.6.15a8.885 8.885 0 0 1 1.525.375c.5.15.958.342 1.375.575.433.233.808.492 1.125.775l-1 1.5a8.958 8.958 0 0 0-2.1-1.2 6.01 6.01 0 0 0-2.275-.425c-.6 0-1.15.1-1.65.3-.5.183-.934.492-1.3.925-.367.417-.659.958-.875 1.625-.2.667-.3 1.467-.3 2.4 0 .933.1 1.733.3 2.4.216.667.516 1.217.9 1.65.383.417.841.725 1.375.925.55.183 1.15.275 1.8.275a6.01 6.01 0 0 0 2.275-.425 8.958 8.958 0 0 0 2.1-1.2l1 1.5a5.827 5.827 0 0 1-1.125.775 7.974 7.974 0 0 1-1.375.6c-.484.15-.992.267-1.525.35-.534.1-1.067.15-1.6.15-1.184 0-2.267-.158-3.25-.475-.967-.3-1.792-.742-2.475-1.325a6.236 6.236 0 0 1-1.6-2.2c-.367-.867-.55-1.867-.55-3 0-1.117.183-2.108.55-2.975.383-.883.908-1.617 1.575-2.2.666-.6 1.466-1.05 2.4-1.35.933-.317 1.966-.475 3.1-.475Zm14.628 7.875h-2.625V32.5h-3.5v-13h3.5v5.625h2.625l3.875-5.625h3.75l-4.375 6.375 4.625 6.625h-4l-3.875-5.625Zm16.646 4.5c.533 0 1.033-.1 1.5-.3a3.27 3.27 0 0 0 1.225-.925c.35-.433.625-.992.825-1.675.217-.683.325-1.508.325-2.475 0-.967-.108-1.792-.325-2.475-.2-.683-.475-1.233-.825-1.65a3.175 3.175 0 0 0-1.225-.95 3.77 3.77 0 0 0-1.5-.3c-.533 0-1.033.1-1.5.3-.467.2-.875.517-1.225.95-.35.417-.633.967-.85 1.65-.2.683-.3 1.508-.3 2.475 0 .967.1 1.792.3 2.475.217.683.5 1.242.85 1.675.35.417.758.725 1.225.925.467.2.967.3 1.5.3Zm0-12.375c1.117 0 2.142.158 3.075.475.95.3 1.758.75 2.425 1.35.667.583 1.183 1.317 1.55 2.2.383.867.575 1.858.575 2.975 0 1.133-.192 2.133-.575 3a6.127 6.127 0 0 1-1.55 2.2c-.667.583-1.475 1.025-2.425 1.325-.933.317-1.958.475-3.075.475-1.133 0-2.167-.158-3.1-.475-.933-.3-1.733-.742-2.4-1.325a6.39 6.39 0 0 1-1.575-2.2c-.367-.867-.55-1.867-.55-3 0-1.117.183-2.108.55-2.975.383-.883.908-1.617 1.575-2.2.667-.6 1.467-1.05 2.4-1.35.933-.317 1.967-.475 3.1-.475Zm23.255 4.125c0 .633-.233 1.175-.7 1.625-.45.45-1.175.742-2.175.875 1.2.183 2.1.567 2.7 1.15.617.567.925 1.225.925 1.975 0 .533-.125 1.033-.375 1.5-.233.45-.6.842-1.1 1.175-.5.333-1.133.6-1.9.8-.767.183-1.683.275-2.75.275h-7.375v-13h6.625c1.067 0 1.983.1 2.75.3.767.183 1.4.442 1.9.775.5.317.867.7 1.1 1.15.25.433.375.9.375 1.4Zm-5.375 7.625c.75 0 1.333-.192 1.75-.575.417-.383.625-.858.625-1.425 0-.567-.208-1.042-.625-1.425-.417-.383-1-.575-1.75-.575h-3.875v4h3.875Zm-.75-5.75c.75 0 1.333-.183 1.75-.55.417-.383.625-.825.625-1.325s-.208-.933-.625-1.3c-.417-.383-1-.575-1.75-.575h-3.125V25h3.125Z"/></svg>