<svg xmlns="http://www.w3.org/2000/svg" xmlns:xlink="http://www.w3.org/1999/xlink"><symbol id="icon-close" viewBox="0 0 24 24"><g fill="none">
<path fill-rule="evenodd" clip-rule="evenodd" d="M18.7071 5.29289C19.0976 5.68342 19.0976 6.31658 18.7071 6.70711L6.70711 18.7071C6.31658 19.0976 5.68342 19.0976 5.29289 18.7071C4.90237 18.3166 4.90237 17.6834 5.29289 17.2929L17.2929 5.29289C17.6834 4.90237 18.3166 4.90237 18.7071 5.29289Z" fill="currentColor"/>
<path fill-rule="evenodd" clip-rule="evenodd" d="M5.29289 5.29289C5.68342 4.90237 6.31658 4.90237 6.70711 5.29289L18.7071 17.2929C19.0976 17.6834 19.0976 18.3166 18.7071 18.7071C18.3166 19.0976 17.6834 19.0976 17.2929 18.7071L5.29289 6.70711C4.90237 6.31658 4.90237 5.68342 5.29289 5.29289Z" fill="currentColor"/>
</g></symbol><symbol id="user" viewBox="0 0 24 24"><g fill="none">
<path d="M11.9978 1.95319C9.2364 1.95319 6.9978 4.19179 6.9978 6.95319C6.9978 9.71459 9.2364 11.9532 11.9978 11.9532C14.7592 11.9532 16.9978 9.71459 16.9978 6.95319C16.9978 4.19179 14.7592 1.95319 11.9978 1.95319ZM8.4666 13.2657C5.8523 13.9802 3.9978 16.2534 3.9978 18.9532V20.9532C3.9978 21.5055 4.4455 21.9532 4.9978 21.9532H18.9978C19.5501 21.9532 19.9978 21.5055 19.9978 20.9532V18.9532C19.9978 16.2534 18.1433 13.9802 15.529 13.2657C15.3049 13.2044 15.0847 13.2327 14.8728 13.3282C13.9573 13.7408 12.9827 13.9532 11.9978 13.9532C11.0129 13.9532 10.0383 13.7408 9.1228 13.3282C8.9109 13.2327 8.6907 13.2044 8.4666 13.2657Z" fill="white"/>
</g></symbol></svg>